<svg id="Ebene_1" data-name="Ebene 1" xmlns="http://www.w3.org/2000/svg" xmlns:xlink="http://www.w3.org/1999/xlink" viewBox="0 0 80.51 41"><defs><clipPath id="clip-path" transform="translate(-334 -369)"><rect x="334" y="369" width="80.51" height="41" fill="none"/></clipPath></defs><title>logo-blume2000</title><g clip-path="url(#clip-path)"><path d="M401.3,396.68a3.67,3.67,0,0,0-1.15-.77,3.57,3.57,0,0,0-1.43-.29,3.48,3.48,0,0,0-1.41.29,3.86,3.86,0,0,0-1.15.77,3.37,3.37,0,0,0-.77,1.15,3.67,3.67,0,0,0-.27,1.42,3.56,3.56,0,0,0,2.2,3.32,3.65,3.65,0,0,0,1.41.27,3.75,3.75,0,0,0,1.43-.27,3.41,3.41,0,0,0,1.15-.77,3.85,3.85,0,0,0,.77-1.15,3.44,3.44,0,0,0,.29-1.4,3.54,3.54,0,0,0-.29-1.42,3.63,3.63,0,0,0-.77-1.15m-56.46-20.15h-3.5v1.4h3.5a0.7,0.7,0,1,0,0-1.41m63.32,1.4a2.2,2.2,0,0,1,1.72.69,2.49,2.49,0,0,1,0,3.29,2.2,2.2,0,0,1-1.72.69H403.7V384h5.59a2.2,2.2,0,0,1,1.72.69,2.48,2.48,0,0,1,0,3.29,2.2,2.2,0,0,1-1.72.69h-7.91a2.05,2.05,0,0,1-2.32-2.33V374.2a2.06,2.06,0,0,1,2.32-2.33h7.91a2.2,2.2,0,0,1,1.72.69,2.49,2.49,0,0,1,0,3.29,2.2,2.2,0,0,1-1.72.69H403.7v1.4h4.46ZM406.7,399.2a7.74,7.74,0,0,1-.63,3.1,7.85,7.85,0,0,1-1.71,2.53,8.16,8.16,0,0,1-2.55,1.69,8.06,8.06,0,0,1-6.22,0,7.86,7.86,0,0,1-4.24-4.22,8,8,0,0,1,0-6.2,8.13,8.13,0,0,1,1.7-2.54,8,8,0,0,1,8.76-1.7,8,8,0,0,1,4.26,4.24,7.74,7.74,0,0,1,.63,3.1M389.53,382a2,2,0,0,1-1.52.87h0a2,2,0,0,1-1.52-.87l-2-2.73v7.09a2.13,2.13,0,0,1-.69,1.71,2.46,2.46,0,0,1-1.65.59,2.42,2.42,0,0,1-1.62-.59,2.13,2.13,0,0,1-.69-1.71V374.19a2.12,2.12,0,0,1,.69-1.71,2.48,2.48,0,0,1,1.54-.58,3.72,3.72,0,0,1,1.77.36,4.18,4.18,0,0,1,1.12,1l3.08,3.91,3.08-3.91a4.17,4.17,0,0,1,1.12-1,3.72,3.72,0,0,1,1.77-.36,2.48,2.48,0,0,1,1.54.58,2.12,2.12,0,0,1,.69,1.71v12.15a2.13,2.13,0,0,1-.69,1.71,2.42,2.42,0,0,1-1.62.59,2.46,2.46,0,0,1-1.65-.59,2.13,2.13,0,0,1-.69-1.71v-7.09Zm-0.87,21.32a7.71,7.71,0,0,1-1.19,1.52,8.16,8.16,0,0,1-2.55,1.69,8.06,8.06,0,0,1-6.22,0,7.85,7.85,0,0,1-4.24-4.22,8,8,0,0,1,0-6.2,8.13,8.13,0,0,1,1.7-2.54,8,8,0,0,1,8.76-1.7,8.06,8.06,0,0,1,2.55,1.7,7.88,7.88,0,0,1,1.19,1.53,10.78,10.78,0,0,0,0,8.21m-18.5-14.63q-6.89,0-6.89-7.39V374.2a2.13,2.13,0,0,1,.69-1.72,2.42,2.42,0,0,1,1.62-.59,2.46,2.46,0,0,1,1.65.59,2.13,2.13,0,0,1,.69,1.72V382a2.18,2.18,0,0,0,4.35,0V374.2a2.13,2.13,0,0,1,.69-1.72,2.42,2.42,0,0,1,1.63-.59,2.46,2.46,0,0,1,1.65.59,2.13,2.13,0,0,1,.69,1.72v7.08q0,7.4-6.78,7.39m1.62,14.63a7.71,7.71,0,0,1-1.18,1.52,8.16,8.16,0,0,1-2.55,1.69,8.06,8.06,0,0,1-6.22,0,7.86,7.86,0,0,1-4.24-4.22,8,8,0,0,1,0-6.2,8.11,8.11,0,0,1,1.7-2.54,8,8,0,0,1,8.76-1.7,8.06,8.06,0,0,1,2.55,1.7,7.88,7.88,0,0,1,1.19,1.53,10.77,10.77,0,0,0,0,8.21M353.51,407H343.6a0.55,0.55,0,0,1-.55-0.65v-4.32a5.35,5.35,0,0,1,1.15-3.68,4.39,4.39,0,0,1,3.45-1.29h3q0.86,0,.86-0.65t-0.86-.65h-5c-1.55,0-2.37-.72-2.37-2.16s0.82-2.16,2.35-2.16h5.26q3.51,0,4.51,2.54-0.25.47-.47,1a10.61,10.61,0,0,0-.86,4.22,11.12,11.12,0,0,0,.09,1.37,4.78,4.78,0,0,1-3,.84h-3q-0.86,0-.86.65v0.65h6.17q2.33,0,2.33,2.16t-2.3,2.16m-14.4-18.36a2,2,0,0,1-2.23-2.33V374.2q0-2.33,2.12-2.33h7.48a3.54,3.54,0,0,1,1.69.39,3.49,3.49,0,0,1,1.2,1,4.83,4.83,0,0,1,.71,1.46,5.88,5.88,0,0,1,.24,1.66,5.35,5.35,0,0,1-.18,1.41,4.17,4.17,0,0,1-.54,1.21,2.86,2.86,0,0,1-.9.87,2.56,2.56,0,0,1-1.26.37,3,3,0,0,1,2.2,1.36,4.88,4.88,0,0,1,.68,2.54,6.06,6.06,0,0,1-.23,1.63,4.41,4.41,0,0,1-.69,1.45,3.67,3.67,0,0,1-1.16,1,3.59,3.59,0,0,1-1.7.39h-7.43Zm13.77-14.48a2.13,2.13,0,0,1,.69-1.72,2.53,2.53,0,0,1,3.25,0,2.13,2.13,0,0,1,.69,1.72V384h2.93a2,2,0,0,1,1.64.69,2.68,2.68,0,0,1,0,3.29,2,2,0,0,1-1.64.69H355.2a2.05,2.05,0,0,1-2.32-2.33V374.2Zm60,8.32a5.43,5.43,0,0,0,0-4.5l0.26-.27a5.34,5.34,0,0,0,0-7.12,5,5,0,0,0-3.86-1.64h-7.91a5.17,5.17,0,0,0-3.82,1.46l-0.18-.16A5.34,5.34,0,0,0,394,369a6.61,6.61,0,0,0-3.26.77,7,7,0,0,0-1.89,1.7l-0.81,1-0.81-1a7,7,0,0,0-1.89-1.69A6.61,6.61,0,0,0,382,369a5.34,5.34,0,0,0-3.41,1.27l-0.26.24-0.25-.23a5.45,5.45,0,0,0-7,0,4.71,4.71,0,0,0-1,1.17,4.75,4.75,0,0,0-1-1.17,5.45,5.45,0,0,0-7,0,4.91,4.91,0,0,0-1.7,3.88,4.91,4.91,0,0,0-1.7-3.88,5.42,5.42,0,0,0-7,0,4.82,4.82,0,0,0-.6.61,6.27,6.27,0,0,0-4.62-1.92H339a4.83,4.83,0,0,0-5,5.2v12.15a4.83,4.83,0,0,0,5.11,5.2h1.69a5.47,5.47,0,0,0-.39,2.08,5,5,0,0,0,1.2,3.39,8.43,8.43,0,0,0-1.44,5v4.43a3.39,3.39,0,0,0,3.42,3.4h9.91a5,5,0,0,0,4.5-2.36,11.07,11.07,0,0,0,2.67,1.61,11,11,0,0,0,8.49,0,11.09,11.09,0,0,0,3.44-2.29,10.45,10.45,0,0,0,.77-0.85,10.63,10.63,0,0,0,.75.84,10.91,10.91,0,0,0,3.44,2.3,11,11,0,0,0,8.49,0,11.1,11.1,0,0,0,3.44-2.29,10.62,10.62,0,0,0,.77-0.85,10.92,10.92,0,0,0,12.68,3.14,11.1,11.1,0,0,0,3.44-2.29,10.75,10.75,0,0,0,2.34-3.43,10.81,10.81,0,0,0,0-8.45,10.9,10.9,0,0,0-2.32-3.43h2.89a5,5,0,0,0,3.86-1.64,5.34,5.34,0,0,0,0-7.11l-0.26-.27m-45.36,14.17a3.67,3.67,0,0,0-1.15-.77,3.58,3.58,0,0,0-1.43-.29,3.48,3.48,0,0,0-1.41.29,3.87,3.87,0,0,0-1.15.77,3.37,3.37,0,0,0-.77,1.15,3.67,3.67,0,0,0-.27,1.42,3.56,3.56,0,0,0,2.2,3.32,3.65,3.65,0,0,0,1.41.27,3.75,3.75,0,0,0,1.43-.27,3.41,3.41,0,0,0,1.15-.77,3.85,3.85,0,0,0,.77-1.15,3.44,3.44,0,0,0,.29-1.4,3.54,3.54,0,0,0-.29-1.42,3.63,3.63,0,0,0-.77-1.15M344.84,382.6h-3.5V384h3.5a0.7,0.7,0,1,0,0-1.41m39.58,14.08a3.67,3.67,0,0,0-1.15-.77,3.58,3.58,0,0,0-1.43-.29,3.48,3.48,0,0,0-1.41.29,3.86,3.86,0,0,0-1.15.77,3.35,3.35,0,0,0-.77,1.15,3.67,3.67,0,0,0-.27,1.42,3.57,3.57,0,0,0,.27,1.4,3.54,3.54,0,0,0,.77,1.15,3.58,3.58,0,0,0,1.15.77,3.64,3.64,0,0,0,1.41.27,3.75,3.75,0,0,0,1.43-.27,3.41,3.41,0,0,0,1.15-.77,3.85,3.85,0,0,0,.77-1.15,3.44,3.44,0,0,0,.29-1.4,3.54,3.54,0,0,0-.29-1.42,3.63,3.63,0,0,0-.77-1.15" transform="translate(-334 -369)" fill="#d4102b"/></g></svg>