<svg width="131" height="32" viewBox="0 0 131 32" xmlns="http://www.w3.org/2000/svg"><g id="Page-1" stroke="none" stroke-width="1" fill="none" fill-rule="evenodd"><g id="navi-xl" transform="translate(-92 -99)"><g id="default"><g id="logo" transform="translate(92.636 99)"><g id="Carglass_logo"><g id="svg2904"><path d="M43.365 0 23 12.663h20.365V0zm.739 0v12.663h12.068V0H44.104zm12.825 0v12.663h12.068V0H56.93zm12.826 0v12.663h12.048V0H69.755zm12.806 0v12.663L102.888 0H82.56z" id="path2689" fill="#3A3A3A"/><path d="M126.542 17.422c0-.744.602-1.306 1.374-1.306.762 0 1.365.562 1.365 1.306 0 .757-.603 1.314-1.365 1.314-.772 0-1.374-.557-1.374-1.314zm1.374 1.575c.918 0 1.704-.665 1.704-1.575 0-.902-.786-1.567-1.704-1.567-.928 0-1.713.665-1.713 1.567 0 .91.785 1.575 1.713 1.575zm-.357-1.45h.339l.513.785h.33l-.553-.798c.285-.033.503-.174.503-.499 0-.357-.227-.515-.686-.515h-.74v1.812h.294v-.785zm0-.234v-.56h.402c.204 0 .423.041.423.266 0 .278-.223.294-.473.294h-.352z" id="path2735" fill="#FF2008"/><path d="M58.2 18.714c-5.705 0-8.783 2.715-8.783 6.758 0 4.107 2.806 6.504 7.987 6.504 3.036 0 4.978-.87 6.005-.87.206 0 .582.075 1.107.181v-5.942c0-.49-.018-.834.37-1.196H58.55c-1.142 0-1.397.158-1.672 1.051l-.466 1.63c.593-.404 1.087-.507 1.749-.507h3.11v1.16c0 1.49-1.353 2.319-3.887 2.319-2.922 0-4.45-1.455-4.45-4.221 0-3 1.878-4.674 5.188-4.674 1.643 0 3.286.42 4.839 1.25l.952-3.243c-.616.084-1.067.126-1.34.126-.89 0-2.365-.326-4.373-.326zm-49.941.019C3.169 18.733 0 21.416 0 25.544c0 4.085 2.798 6.432 7.637 6.432 2.123 0 3.757-.417 4.761-.417.297 0 .623.072 1.01.2v-3.443c-1.848.852-3.496 1.34-5.207 1.34-3.036 0-4.645-1.487-4.645-4.275 0-2.532 1.85-4.33 4.839-4.33 1.552 0 2.932.384 4.256 1.214l1.204-3.152c-.296.064-.529.127-.757.127-.89 0-2.511-.507-4.84-.507zm96.697 0c-3.88 0-6.18 1.69-6.18 3.967 0 1.98 1.662 3.107 4.994 3.533 2.694.34 4.276.435 4.276 1.775 0 1.106-1.138 1.649-3.42 1.649-1.94 0-3.874-.456-5.928-1.413l.836 3.569c.229-.086.452-.127.68-.127.844 0 2.377.308 4.43.308 4.52 0 6.977-1.607 6.977-4.33 0-2.192-1.636-3.233-4.877-3.786-2.877-.49-4.45-.36-4.45-1.595 0-.83.88-1.286 2.545-1.286 2.123 0 3.904.462 5.228 1.25l.835-3.225c-.205.085-.38.11-.563.11-1.05 0-2.895-.4-5.383-.4zm13.933 0c-3.88 0-6.16 1.69-6.16 3.967 0 1.98 1.642 3.107 4.975 3.533 2.693.34 4.294.435 4.294 1.775 0 1.106-1.137 1.649-3.42 1.649-1.94 0-3.892-.456-5.946-1.413l.855 3.569a1.91 1.91 0 0 1 .68-.127c.845 0 2.377.308 4.43.308 4.52 0 6.957-1.607 6.957-4.33 0-2.192-1.617-3.233-4.858-3.786-2.876-.49-4.45-.36-4.45-1.595 0-.83.86-1.286 2.526-1.286 2.123 0 3.904.462 5.228 1.25l.855-3.225c-.205.085-.4.11-.583.11-1.05 0-2.895-.4-5.383-.4zm-97.882.29c.114.233.155.368.155.452 0 .128-.077.343-.214.598l-4.8 9.33c-.457.873-.928 1.644-1.612 2.283h5.227c-.342-.277-.525-.668-.525-1.178a2 2 0 0 1 .175-.815l.292-.616h7.831l.389.815c.068.15.155.46.155.78 0 .382-.162.673-.505 1.014h5.169c-.64-.617-1.18-1.39-1.613-2.283l-4.47-9.33c-.136-.276-.194-.473-.194-.58 0-.105.083-.258.175-.47h-5.635zm11.834 0c.798.34 1.147 1.024 1.147 2.173v8.28c0 1.17-.325 1.87-1.147 2.21h5.655c-.798-.319-1.166-1.04-1.166-2.21v-2.591h1.574c1.37 0 2.433.464 3.323 1.486.936 1.064 1.38 1.934 1.38 2.572 0 .276-.153.488-.428.743h5.83c-1.278-.809-1.896-2.049-2.74-3.261-.616-.894-1.207-1.613-2.37-2.102 2.396-.426 3.692-1.763 3.692-3.55 0-1.682-1.01-2.975-2.585-3.443-1.004-.297-2.382-.308-4.14-.308h-8.025zm33.288 0c.8.34 1.147 1.024 1.147 2.173v8.316c0 1.127-.348 1.834-1.147 2.174h12.612c-.16-.213-.272-.374-.272-.544 0-.32.549-1.325 1.302-3.134-1.46 1.107-3.137 1.504-5.305 1.504h-3.867v-8.316c0-1.106.406-1.855 1.205-2.174h-5.675zm20.094 0c.114.233.175.368.175.452 0 .128-.077.343-.214.598l-4.82 9.33c-.457.873-.908 1.644-1.593 2.283h5.227c-.342-.277-.524-.668-.524-1.178 0-.32.064-.624.155-.815l.311-.616h7.812l.389.815c.068.15.175.46.175.78 0 .382-.164.673-.506 1.014h5.15c-.639-.617-1.159-1.39-1.594-2.283l-4.469-9.33c-.137-.276-.214-.473-.214-.58 0-.105.103-.258.195-.47h-5.655zm-62.67 1.83 2.953 5.923h-5.694l2.74-5.924zm65.235 0 2.954 5.923h-5.694l2.74-5.924zm-51.458.343h3.615c2.168 0 3.09.378 3.09 1.74 0 1.361-.922 1.775-3.09 1.775H37.33v-3.515z" id="path2739" fill="#FF2008"/><path d="M44.248.362v11.94h11.31V.361h-11.31zM42.732.67 24 12.301h18.733V.671z" id="path2703" fill="#FFDC00"/><path d="M56.887.455v11.888h11.31V.455h-11.31zm12.826 0v11.888h11.31V.455h-11.31zm12.826 0v11.6c1.047-.65 16.887-10.48 18.694-11.6H82.539z" id="path2717" fill="#FF2008"/></g></g></g></g></g></g></svg>