<?xml version="1.0" encoding="UTF-8"?>
<svg width="132px" height="20px" viewBox="0 0 132 20" version="1.1" xmlns="http://www.w3.org/2000/svg" xmlns:xlink="http://www.w3.org/1999/xlink">
    <title>INFORM LOGO WHITE</title>
    <g id="Symbols" stroke="none" stroke-width="1" fill="none" fill-rule="evenodd">
        <g id="footer-dummy" transform="translate(-1188.000000, -488.000000)" fill="#F4F4F4">
            <g id="Group" transform="translate(1188.000000, 488.000000)">
                <polygon id="Path" points="124.491948 0.322678098 120.512365 12.7084711 116.56056 0.322678098 110.018025 0.322678098 110.018025 19.6772403 114.610776 19.6772403 114.610776 8.13284344 118.296004 19.6772403 122.355601 19.6772403 126.04083 8.13284344 126.04083 19.6772403 131.034483 19.6772403 131.034483 0.322678098"></polygon>
                <path d="M107.225269,7.31781996 C107.225269,1.16431925 104.634954,0.322514799 99.5608726,0.322514799 L91.0689682,0.322514799 L91.0689682,19.677077 L96.2500124,19.677077 L96.2495978,4.45111247 L99.5343392,4.45111247 C101.109755,4.45111247 101.991158,4.89814248 101.991158,7.37048377 C101.991158,9.76321698 101.270198,10.3151664 99.5608726,10.3151664 C99.2831019,10.3151664 96.4743018,10.3155746 96.4743018,10.3155746 L102.846029,19.677077 L108.800685,19.677077 L104.234053,13.2080016 C106.21037,12.6295162 107.225269,11.1304348 107.225269,7.31781996 L107.225269,7.31781996 Z" id="Path"></path>
                <path d="M79.7215809,0.000928994635 C85.4735113,0.0434301991 89.10343,1.57042401 89.10343,9.94733619 C89.10343,18.44703 85.3124827,20 79.4129661,20 C73.5399828,20 69.7759834,18.4996938 69.7759834,10 C69.7759834,1.49989794 73.593464,0 79.4664473,0 Z M79.4129661,4.36864666 C76.1560018,4.36864666 75.2484795,5.52643397 75.2484795,9.18432333 L75.2484795,10.7103491 C75.2484795,14.3682384 76.209483,15.736681 79.4664473,15.736681 C82.749945,15.736681 83.6309339,14.4209022 83.6309339,10.7626046 L83.6309339,9.23698714 C83.6309339,5.57868953 82.6964638,4.36864666 79.4129661,4.36864666 Z" id="Combined-Shape"></path>
                <polygon id="Path" points="54.7192811 0.322678098 54.7192811 19.6772403 59.9538065 19.6772403 59.9538065 13.1032456 67.0842202 13.1032456 67.0842202 8.92198408 59.9538065 8.92198408 59.9538065 4.76685038 68.7931314 4.76685038 68.7931314 0.322678098"></polygon>
                <polygon id="Path" points="47.1834052 0.322678098 47.1834052 10.3153297 39.9194958 0.322678098 34.6588517 0.322678098 34.6588517 19.6772403 39.6794523 19.6772403 39.6794523 8.39575424 47.7708694 19.6772403 52.2035912 19.6772403 52.2035912 0.322678098"></polygon>
                <polygon id="Path" points="26.8617885 19.6772403 32.1232618 19.6772403 32.1232618 0.322678098 26.8617885 0.322678098"></polygon>
                <polygon id="Path" points="17.4713583 19.677077 22.9310024 0.322514799 5.4600586 0.322514799 0 19.677077"></polygon>
            </g>
        </g>
    </g>
</svg>
