<?xml version="1.0" encoding="UTF-8"?>
<svg width="1190px" height="195px" viewBox="0 0 1190 195" version="1.1" xmlns="http://www.w3.org/2000/svg" xmlns:xlink="http://www.w3.org/1999/xlink">
    <!-- Generator: Sketch 62 (91390) - https://sketch.com -->
    <title>nexum-logo</title>
    <desc>Created with Sketch.</desc>
    <g id="Page-1" stroke="none" stroke-width="1" fill="none" fill-rule="evenodd">
        <g id="nexum-logo" fill="#FFFFFF" fill-rule="nonzero">
            <g id="Group" transform="translate(595.100000, 97.500000) scale(-1, 1) rotate(-180.000000) translate(-595.100000, -97.500000) translate(0.100000, 0.000000)">
                <path d="M26.6,4 C45.6,4 51.6,4.8 53.6,7.6 C54.6,9 54.9,20.9 54.9,62.2 L54.9,62.2 L54.9,115.1 L57.5,120.2 C62.7,130.5 75.5,140.2 87.7,143 C95,144.7 107.2,143.9 113,141.3 C122.7,137 129.6,127.6 131.8,115.5 C132.486,111.874 132.88388,92.20932 132.899521,61.682516 L132.9,9.9 L135.3,7.5 C138.6,4.2 141.7,3.8 163.7,4.2 L163.7,4.2 L183.1,4.5 L186.1,7.8 L189,11.2 L188.6,65.3 C188.3,115.5 188.1,120.2 186.2,128.5 C177.1,168.3 153.2,190.4 115.2,194 C109.2,194.5 104.2,194.9 103.9,194.9 C103.6,194.8 100.3,194.4 96.4,194 C78.4,192 62.5,185.3 47.7,173.4 C44,170.4 40.8,168.4 40.5,168.8 C40.3,169.2 38.9,172.7 37.5,176.5 C32.4,190.1 32,190.3 16,189.8 C6.1,189.5 4.7,189.3 2.7,187.2 L2.7,187.2 L0.4,184.9 L0.1,98.7 C-0.1,37.3 0.2,11.7 1,9.8 C3,4.9 6.8,4 26.6,4 Z M925.7,4.2 C946,3.8 949.2,4.2 952.5,7.5 L952.5,7.5 L954.9,9.9 L954.9,125.8 L959.4,130.4 C969.1,140.1 981.4,144.6 995.9,143.8 C1008.5,143 1018,137.4 1023.1,127.6 C1027.5,119.1 1027.9,113.4 1027.9,60.2 L1027.9,60.2 L1027.9,9.9 L1030.39896,7.4018679 C1033.66389,4.19208 1036.92,3.804 1058.7,4.2 L1058.7,4.2 L1078.1,4.5 L1082.9,10.1 L1082.9,62.9 C1082.9,125.7 1082.2,132.5 1073.3,151.8 C1064.4,171.3 1051.2,183.3 1031.3,189.9 C1001.5,199.9 966.4,192.5 942.9,171.2 L942.9,171.2 L937,165.9 L932.7,170.6 C923.2,180.9 910.3,188.7 897.5,191.9 C869.7,198.9 839.4,191 818.7,171.2 C816.6,169.2 814.8,167.8 814.6,168.1 C814.4,168.3 812.7,172.8 810.8,178 C806.684,189.368 806.12148,189.97952 792.923938,189.999434 L791.6558,189.999472 C779.623124,189.970446 776.480723,188.73253 774.9,183.2 C774.1,180.6 773.9,153.7 774.1,94.8 L774.1,94.8 L774.4,10 L777.2,7.3 L779.9,4.5 L824.1,4.5 L827,7.8 L829.9,11 L829.90072,73.6924362 C829.91029,115.2687 830.047,116.487 832,120.3 C840.4,136.9 853.7,144.9 871.3,143.7 C886,142.8 894.5,136.8 899.7,123.7 C901.2,120 901.4,112.5 901.9,64.8 L901.9,64.8 L902.4,10 L905.2,7.3 L907.9,4.5 Z M257.2,9 C290.8,-6.6 335.5,-1.4 363.2,21.5 C370.1,27.2 371.9,30.5 370.1,34.3 C368.2,38.5 347.7,61 345.2,61.6 C343.6,62 341.1,61.3 337.6,59.4 C325.7,53 320.6,50.8 314.2,49.5 C295.6,45.5 280.1,49.7 268.8,61.7 C263.4,67.4 258.4,77 257.3,83.8 L257.3,83.8 L256.6,88 L378.7,88 L381.2,91 C387.9,98.9 385,128.8 375.8,147.3 C364.2,170.4 344.1,186.1 318.8,191.9 C296.4,197 275.2,194.3 254.4,183.7 C232,172.1 215.3,151.1 207.2,124.5 C204.78427,116.383146 204.516096,114.428847 204.500762,98.6974504 L204.500781,95.2933899 C204.516309,79.6629003 204.785227,77.6136364 207.2,69.5 C215.7,41.5 233.5,20 257.2,9 Z M599.9,20.1 C614.8,5.3 632.8,-0.8 658.4,0.3 C678.3,1.1 694,7.3 708.5,20.3 C715.9,26.8 715.8,26.8 718.5,18.5 C722.8,5.4 724.8,4 738.6,4 C747.7,4 753.1,5.6 754.8,8.8 C755.6,10.3 755.9,37.4 755.9,97.5 L755.9,97.5 L755.9,184.2 L750.1,190 L726.264966,189.999405 C708.28624,189.98896 706.9,189.82 704.5,187.9 L704.5,187.9 L701.9,185.9 L701.9,135.5 C701.9,78.9 701.9,78.8 694.4,67.6 C690,60.9 685.4,56.9 677.9,53.2 C673.3,51 671.1,50.5 664.3,50.5 C657,50.5 655.5,50.8 649.4,54 C641.6,58 637.2,63.2 633.6,72.7 C631.5,78.3 631.4,79.9 631.1,131.7 L631.1,131.7 L630.8,184.9 L627.8,187.5 L624.7,190 L603.6,190 C579.5,189.9 577.7,189.5 575.8,183.2 C574,177 575.2,76.8 577.3,66.4 C581.1,46.8 588.9,30.9 599.9,20.1 Z M511.2,6.3 C515.7,3.8 556.7,3 562.2,5.4 C566.1,7 567.6,10.1 566.5,14.3 C566.2,15.5 552.5,35.2 536,58 C518.3,82.4 506.4,99.9 506.8,100.5 C521.5,119.2 565.4,178 566,180 C567.3,183.7 565.6,187.8 562.2,189.1 C560.6,189.7 550.1,190 534.8,189.8 C511.5,189.5 509.9,189.4 507.2,187.4 C505.1,185.8 483.2,156.1 473.5,141.6 C472.4,139.9 471,141.5 458.9,159.1 C442.3,183.3 439.4,186.9 435.3,188.6 C431.5,190.2 388,190.5 384.2,189 C380.9,187.7 378.6,183.5 379.3,180.4 C379.7,178.9 393.1,160.3 409.2,139.1 C425.2,117.9 438.3,99.8 438.3,99 C438.3,98.2 424.7,79.3 408.2,57 C391.6,34.7 377.8,15.3 377.4,13.9 C377.1,12.5 377.2,10.2 377.8,8.8 C379.4,4.5 383.7,3.8 409.1,4.2 C430.2,4.5 431.9,4.6 434.5,6.6 C436.1,7.7 445.1,19.6 454.5,33.1 C464,46.5 472.1,57.3 472.6,57.1 C473,56.8 481.2,45.7 490.7,32.3 C502.6,15.6 508.9,7.5 511.2,6.3 Z M328.9,121 L259.9,121 L260.5,123.8 C262.7,133.9 272.4,145.1 282.2,148.9 C285.8,150.3 289.9,150.9 295.4,150.9 C305,151 311.9,148.3 318.8,141.7 C323.3,137.3 328.9,127.2 328.9,123.3 L328.9,123.3 L328.9,121 Z M1156.23252,4.0001541 C1183.45994,4.01046 1186.424,4.551 1188.8,9.6 C1189.5,11.3 1189.9,21.1 1189.9,39.5 L1189.9,39.5 L1189.9,66.8 L1187.3,69.9 L1184.7,73 L1126.1,73 L1123.5,69.9 L1120.9,66.8 L1120.9006,38.2725735 C1120.91813,20.663641 1121.31573,11.2617978 1122,9.6 C1124.4,4.5 1127.4,4 1155.4,4 Z" id="Combined-Shape"></path>
            </g>
        </g>
    </g>
</svg>