<svg id="Ebene_2" data-name="Ebene 2" xmlns="http://www.w3.org/2000/svg" viewBox="0 0 185.23 184.61"><defs><style>.cls-1{fill:#fff;}.cls-2{fill:#060b11;}</style></defs><title>pb_Logos</title><rect class="cls-1" width="185.23" height="184.61"/><path class="cls-2" d="M65.35,52.72A28.51,28.51,0,0,0,58.13,64.9L38.83,45.6h0a7.36,7.36,0,0,0-6.36-2h0s-3,.36-4.48-1.24c-1.14-1.23-1.11-3.45-1-4.46a5,5,0,0,0,.06-.54h0a7.35,7.35,0,1,0-6.8,6.8h.07l.34,0c.93-.09,3.29-.18,4.58,1,1.61,1.49,1.25,4.45,1.24,4.48h0a7.37,7.37,0,0,0,2,6.41l.26.22L65.33,93.12l0,0,0,0,.76.77v-.07a28.57,28.57,0,1,0-.79-41.15ZM96.27,83.64a15.14,15.14,0,1,1,0-21.41A15.14,15.14,0,0,1,96.27,83.64Z"/><path class="cls-2" d="M53.11,24.58a6.72,6.72,0,0,0,7.66,11.05,44.1,44.1,0,1,1,39,78.13,6.72,6.72,0,0,0-4.28,8.49A6.55,6.55,0,0,0,97,124.8l0,0,33.39,33.25v0a7.34,7.34,0,0,0,5.71,2.12h.09l.39-.05c1.18-.1,3.35,0,4.51,1,1.61,1.49,1.25,4.45,1.24,4.48h0a7.35,7.35,0,1,0,6-6h0s-3,.38-4.48-1.24c-1.14-1.23-1.11-3.44-1-4.46a4.78,4.78,0,0,0,.06-.53h0a7.34,7.34,0,0,0-1.83-5.38h0l-.12-.11-.18-.2-.19-.17-25.79-25.92a57.54,57.54,0,1,0-61.71-97Z"/></svg>